<svg width="30" height="30" viewBox="0 0 30 30" fill="none" xmlns="http://www.w3.org/2000/svg">
<path d="M10.6462 11.6155C10.3621 11.6155 10.1318 11.8458 10.1318 12.1298V19.9338C10.1318 20.2178 10.3621 20.4481 10.6462 20.4481H15.8486H21.0512H26.2536C26.5376 20.4481 26.7678 20.2178 26.7678 19.9338V12.1298C26.7678 11.8458 26.5376 11.6155 26.2536 11.6155C25.9695 11.6155 25.7394 11.8458 25.7394 12.1298V19.4195H21.5655V12.1298C21.5655 11.8458 21.3354 11.6155 21.0513 11.6155H15.8487C15.5647 11.6155 15.3345 11.8458 15.3345 12.1298V19.4195H11.1606V12.1298C11.1605 11.8458 10.9302 11.6155 10.6462 11.6155ZM16.3628 12.6441H20.537V19.4195H16.3628V12.6441Z" fill="#212121"/>
<path d="M7.77635 12.4933L18.4486 1.82108L29.1215 12.4934C29.2219 12.5938 29.3535 12.644 29.4851 12.644C29.6168 12.644 29.7484 12.5937 29.8488 12.4933C30.0496 12.2925 30.0496 11.9668 29.8488 11.766L24.4812 6.39881V1.09379C24.4812 0.809754 24.2511 0.579468 23.967 0.579468C23.683 0.579468 23.4528 0.809754 23.4528 1.09379V5.3704L18.8122 0.730144C18.6113 0.529317 18.2858 0.529317 18.0848 0.730144L7.04906 11.766C6.84823 11.9668 6.84823 12.2925 7.04906 12.4933C7.24988 12.6941 7.57552 12.6941 7.77635 12.4933Z" fill="#212121"/>
<path d="M29.4862 23.6648C29.2021 23.6648 28.972 23.8951 28.972 24.1791V26.3183H7.92806V24.1791C7.92806 23.8951 7.69777 23.6648 7.41374 23.6648C7.1297 23.6648 6.89941 23.8951 6.89941 24.1791V29.4856C6.89941 29.7697 7.1297 29.9999 7.41374 29.9999C7.69777 29.9999 7.92806 29.7697 7.92806 29.4856V27.3468H28.972V29.4856C28.972 29.7697 29.2021 29.9999 29.4862 29.9999C29.7702 29.9999 30.0004 29.7697 30.0004 29.4856V24.1791C30.0005 23.8951 29.7703 23.6648 29.4862 23.6648Z" fill="#212121"/>
<path d="M5.82178 1.02853C6.10582 1.02853 6.33611 0.798244 6.33611 0.514209C6.33611 0.230174 6.10582 0 5.82178 0H0.515298C0.231263 0 0.00108901 0.230287 0.00108901 0.514322C0.00108901 0.798357 0.231376 1.02864 0.515411 1.02864H2.65422V22.0725H0.515298C0.231263 22.0725 0.000976562 22.3028 0.000976562 22.5869C0.000976562 22.8709 0.231263 23.1012 0.515298 23.1012H5.82178C6.10582 23.1012 6.33611 22.8709 6.33611 22.5869C6.33611 22.3028 6.10582 22.0725 5.82178 22.0725H3.68275V1.02853H5.82178Z" fill="#212121"/>
</svg>
