<svg width="30" height="30" viewBox="0 0 30 30" fill="none" xmlns="http://www.w3.org/2000/svg">
<path d="M29.3746 8.75024H24.9997V1.82555L25.9835 1.13685C26.2656 0.939101 26.3351 0.549693 26.1361 0.266513C25.9384 -0.0166662 25.549 -0.0850441 25.2658 0.113937L0.266191 17.6136C-0.0158165 17.8114 -0.0853662 18.2008 0.113615 18.484C0.234434 18.6573 0.428552 18.7501 0.625072 18.7501C0.749582 18.7501 0.874092 18.7135 0.983954 18.6366L3.75001 16.7003V23.75H1.87503C1.52957 23.75 1.25002 24.0296 1.25002 24.375C1.25002 24.7205 1.52957 25 1.87503 25H2.50004V29.375C2.50004 29.7205 2.77959 30 3.12506 30H29.3747C29.7201 30 29.9997 29.7205 29.9997 29.375V9.37525C29.9996 9.02978 29.7201 8.75024 29.3746 8.75024ZM4.99997 15.8253L23.7497 2.70052V8.75024H21.8747C21.5293 8.75024 21.2497 9.02978 21.2497 9.37525C21.2497 9.72071 21.5293 10.0003 21.8747 10.0003H22.4997V12.5002H16.8748C16.5293 12.5002 16.2498 12.7798 16.2498 13.1252C16.2498 13.4707 16.5293 13.7503 16.8748 13.7503H17.4998V16.2502H11.8749C11.5294 16.2502 11.2499 16.5298 11.2499 16.8753C11.2499 17.2207 11.5294 17.5003 11.8749 17.5003H12.4999V20.0002H6.875C6.52954 20.0002 6.24999 20.2798 6.24999 20.6253C6.24999 20.9707 6.52954 21.2503 6.875 21.2503H7.50001V23.7502H4.99997V15.8253ZM28.7497 28.75H3.75001V25H8.12496C8.47042 25 8.74997 24.7205 8.74997 24.375V21.2501H13.1249C13.4704 21.2501 13.7499 20.9705 13.7499 20.6251V17.5001H18.1249C18.4704 17.5001 18.7499 17.2206 18.7499 16.8751V13.7502H23.1249C23.4703 13.7502 23.7499 13.4707 23.7499 13.1252V10.0003H28.7498V28.75H28.7497Z" fill="#212121"/>
</svg>
