<svg width="25" height="25" viewBox="0 0 25 25" fill="none" xmlns="http://www.w3.org/2000/svg">
<rect x="0.5" y="0.5" width="24" height="24" rx="12" stroke="url(#paint0_linear)"/>
<path d="M18.0998 6.881C16.7597 5.5015 14.9072 4.75262 13.0153 4.75262C8.99503 4.75262 5.76305 8.02402 5.80246 12.0049C5.80246 13.2661 6.15719 14.488 6.74841 15.5916L5.72363 19.336L9.54683 18.3506C10.611 18.9418 11.7935 19.2177 12.9759 19.2177C16.9567 19.2177 20.1887 15.9463 20.1887 11.9655C20.1887 10.0342 19.4398 8.22109 18.0998 6.881ZM13.0153 17.9959C11.9511 17.9959 10.8869 17.72 9.98039 17.1682L9.7439 17.0499L7.45787 17.6411L8.04908 15.3945L7.89143 15.158C6.15719 12.3596 6.98489 8.65465 9.82273 6.92042C12.6606 5.18618 16.3261 6.01389 18.0603 8.85172C19.7946 11.6896 18.9669 15.3551 16.129 17.0893C15.2225 17.6806 14.1189 17.9959 13.0153 17.9959ZM16.4838 13.6209L16.0502 13.4238C16.0502 13.4238 15.4196 13.1479 15.0254 12.9508C14.986 12.9508 14.9466 12.9114 14.9072 12.9114C14.7889 12.9114 14.7101 12.9508 14.6313 12.9902C14.6313 12.9902 14.5919 13.0297 14.0401 13.6603C14.0007 13.7391 13.9218 13.7785 13.843 13.7785H13.8036C13.7642 13.7785 13.6853 13.7391 13.6459 13.6997L13.4489 13.6209C13.0153 13.4238 12.6212 13.1873 12.3058 12.872C12.227 12.7932 12.1088 12.7143 12.0299 12.6355C11.754 12.3596 11.4781 12.0443 11.2811 11.6896L11.2417 11.6107C11.2022 11.5713 11.2022 11.5319 11.1628 11.4531C11.1628 11.3742 11.1628 11.2954 11.2022 11.256C11.2022 11.256 11.3599 11.0589 11.4781 10.9407C11.557 10.8619 11.5964 10.7436 11.6752 10.6648C11.754 10.5465 11.7935 10.3889 11.754 10.2706C11.7146 10.0736 11.2417 9.00938 11.1234 8.77289C11.0446 8.65465 10.9657 8.61524 10.8475 8.57582H10.7293C10.6504 8.57582 10.5322 8.57582 10.4139 8.57582C10.3351 8.57582 10.2563 8.61524 10.1775 8.61524L10.138 8.65465C10.0592 8.69407 9.98039 8.77289 9.90156 8.81231C9.82273 8.89114 9.78332 8.96997 9.70449 9.0488C9.42859 9.40353 9.27093 9.83708 9.27093 10.2706C9.27093 10.586 9.34976 10.9013 9.468 11.1772L9.50742 11.2954C9.86215 12.0443 10.3351 12.7143 10.9658 13.3056L11.1234 13.4632C11.2417 13.5815 11.3599 13.6603 11.4387 13.7785C12.2664 14.488 13.2124 15.0004 14.2766 15.2763C14.3948 15.3157 14.5525 15.3157 14.6707 15.3551C14.7889 15.3551 14.9466 15.3551 15.0648 15.3551C15.2619 15.3551 15.4984 15.2763 15.6561 15.1974C15.7743 15.1186 15.8531 15.1186 15.932 15.0398L16.0108 14.961C16.0896 14.8821 16.1685 14.8427 16.2473 14.7639C16.3261 14.6851 16.4049 14.6062 16.4444 14.5274C16.5232 14.3697 16.5626 14.1727 16.602 13.9756C16.602 13.8968 16.602 13.7785 16.602 13.6997C16.602 13.6997 16.5626 13.6603 16.4838 13.6209Z" fill="url(#paint1_linear)"/>
<defs>
<linearGradient id="paint0_linear" x1="6.25" y1="12.4967" x2="26.2504" y2="22.4999" gradientUnits="userSpaceOnUse">
<stop stop-color="#FFE2AE"/>
<stop offset="1" stop-color="#CCA04A"/>
</linearGradient>
<linearGradient id="paint1_linear" x1="9.33991" y1="12.0424" x2="20.9498" y2="17.8019" gradientUnits="userSpaceOnUse">
<stop stop-color="#FFE2AE"/>
<stop offset="1" stop-color="#CCA04A"/>
</linearGradient>
</defs>
</svg>
