<svg width="26" height="25" viewBox="0 0 26 25" fill="none" xmlns="http://www.w3.org/2000/svg">
<rect x="1.16699" y="0.5" width="24" height="24" rx="12" stroke="url(#paint0_linear)"/>
<path d="M6.30869 9.3203L6.3087 9.32013C6.34592 8.50267 6.48549 8.03645 6.61035 7.71232L6.61099 7.71067L6.61099 7.71067C6.77772 7.28241 6.98469 6.96339 7.30751 6.64013L7.57968 6.91193L7.30751 6.64013C7.63029 6.3169 7.94933 6.10928 8.37886 5.943C8.70435 5.81611 9.17201 5.67795 9.98777 5.64084L6.30869 9.3203ZM6.30869 9.3203C6.27093 10.1559 6.26274 10.4115 6.26274 12.5001C6.26274 14.5881 6.27029 14.8449 6.3087 15.68L6.30869 9.3203ZM16.3468 5.64082L16.3469 5.64083C17.1644 5.67806 17.6306 5.81763 17.9547 5.94249L17.9557 5.94286C18.3849 6.10923 18.704 6.31718 19.0269 6.63964C19.3509 6.96313 19.5574 7.28288 19.7239 7.71067M16.3468 5.64082L19.258 7.89206M16.3468 5.64082C15.5112 5.60306 15.2546 5.59487 13.167 5.59487C11.0799 5.59487 10.8231 5.60242 9.98804 5.64083L16.3468 5.64082ZM19.7239 7.71067L19.258 7.89206M19.7239 7.71067C19.7239 7.71058 19.7239 7.71048 19.7238 7.71039L19.258 7.89206M19.7239 7.71067C19.8509 8.03621 19.9891 8.50398 20.0262 9.32017M19.258 7.89206C19.3652 8.16706 19.4921 8.58119 19.5267 9.34288M20.0262 9.32017C20.0262 9.32009 20.0262 9.32 20.0262 9.31992L19.5267 9.34288M20.0262 9.32017C20.0646 10.1559 20.0722 10.412 20.0722 12.5001C20.0722 14.5881 20.0646 14.8442 20.0262 15.68M20.0262 9.32017L19.5267 9.34288M19.5267 9.34288L20.0262 15.68M20.0262 15.68C19.989 16.497 19.8499 16.9642 19.7242 17.2887M20.0262 15.68L19.7242 17.2887M19.7242 17.2887L19.7239 17.2895C19.5572 17.7177 19.3502 18.0369 19.027 18.3598C18.7041 18.6824 18.3846 18.8897 17.9564 19.0564C17.6308 19.1833 17.1631 19.3216 16.3469 19.3587C15.5118 19.3971 15.255 19.4046 13.167 19.4046C11.0788 19.4046 10.8228 19.3971 9.98776 19.3587C9.17155 19.3215 8.70402 19.1832 8.37854 19.0564C8.3785 19.0564 8.37846 19.0563 8.37842 19.0563L8.55993 18.5904C8.19518 18.4484 7.93493 18.2793 7.6613 18.0061L19.7242 17.2887ZM9.96913 5.23428L9.9688 5.23429C9.18435 5.27002 8.67047 5.39267 8.23106 5.56365L8.23061 5.56383C7.77718 5.73976 7.40183 5.97049 7.01908 6.35265C6.63708 6.73404 6.40697 7.10963 6.23082 7.56362L6.23068 7.56397C6.05965 8.0038 5.93701 8.51741 5.90129 9.30181L5.90127 9.30215C5.86331 10.1235 5.85449 10.3807 5.85449 12.5C5.85449 14.6193 5.86331 14.8765 5.90127 15.6979L5.90129 15.6982C5.93701 16.4826 6.05964 16.9962 6.23068 17.436L6.23078 17.4363C6.407 17.8902 6.63722 18.2662 7.01903 18.6473C7.4015 19.0291 7.7769 19.2596 8.23076 19.4362L9.96913 5.23428ZM9.96913 5.23428C10.7909 5.19632 11.0483 5.1875 13.1676 5.1875C15.2866 5.1875 15.5441 5.19693 16.3658 5.2343L16.3662 5.23431M9.96913 5.23428L16.3662 5.23431M16.3648 19.7657L16.3652 19.7657C17.1495 19.73 17.663 19.6074 18.1028 19.4364L16.3648 19.7657ZM16.3648 19.7657C15.5435 19.8037 15.2863 19.8125 13.167 19.8125C11.0481 19.8125 10.791 19.8031 9.9688 19.7657M16.3648 19.7657L9.9688 19.7657M20.4327 15.6986L20.4327 15.6982C20.4701 14.876 20.4789 14.6193 20.4789 12.5C20.4789 10.3807 20.4701 10.1234 20.4327 9.30177M20.4327 15.6986L20.5693 7.38275M20.4327 15.6986C20.3976 16.4823 20.2745 16.9958 20.1034 17.4358L20.4327 15.6986ZM20.4327 9.30177L20.9322 9.27906L20.4327 9.30181C20.4327 9.3018 20.4327 9.30178 20.4327 9.30177ZM20.4327 9.30177C20.397 8.51728 20.2743 8.00347 20.1033 7.56407M20.1033 7.56407C20.1033 7.5641 20.1034 7.56413 20.1034 7.56416L20.5693 7.38275M20.1033 7.56407L20.5693 7.38275M20.1033 7.56407C19.9266 7.11021 19.6962 6.73455 19.3143 6.35209C18.933 5.97016 18.5571 5.73997 18.1038 5.56377L20.5693 7.38275M16.3662 5.23431C17.1492 5.26941 17.6629 5.39251 18.1037 5.56372L16.3662 5.23431ZM16.8999 8.32975C16.8999 8.41619 16.9256 8.5007 16.9736 8.5726C17.0216 8.64457 17.0899 8.70067 17.1698 8.73382C17.2498 8.76696 17.3377 8.77566 17.4226 8.75881C17.5075 8.74197 17.5855 8.70033 17.6467 8.63917C17.7079 8.57801 17.7496 8.50007 17.7665 8.41521C17.7834 8.33035 17.7748 8.24238 17.7417 8.16242C17.7086 8.08247 17.6526 8.01412 17.5806 7.96602C17.5087 7.91793 17.4242 7.89223 17.3377 7.89219L16.8999 8.32975ZM16.8999 8.32975C16.9 8.2137 16.9462 8.10243 17.0283 8.0204C17.1103 7.93837 17.2216 7.89226 17.3376 7.89219L16.8999 8.32975ZM9.9688 19.7657C9.18469 19.73 8.67165 19.6074 8.23105 19.4363L9.9688 19.7657ZM6.30871 15.6802C6.34582 16.4962 6.48404 16.9639 6.61095 17.2894L6.30871 15.6802ZM13.167 9.39563C11.4525 9.39563 10.0632 10.7858 10.0632 12.5C10.0632 14.2142 11.4525 15.6044 13.167 15.6044C14.8813 15.6044 16.2714 14.2143 16.2714 12.5C16.2714 10.7857 14.8813 9.39563 13.167 9.39563ZM13.167 16.0116C11.2275 16.0116 9.65537 14.4395 9.65537 12.5C9.65537 10.5605 11.2275 8.98838 13.167 8.98838C15.1065 8.98838 16.6786 10.5605 16.6786 12.5C16.6786 14.4395 15.1065 16.0116 13.167 16.0116ZM19.3149 18.6474C18.9325 19.0292 18.5568 19.2596 18.103 19.4363L20.1033 17.436C19.9264 17.8904 19.6966 18.2663 19.3149 18.6474Z" stroke="url(#paint1_linear)"/>
<defs>
<linearGradient id="paint0_linear" x1="6.91699" y1="12.4967" x2="26.9174" y2="22.4999" gradientUnits="userSpaceOnUse">
<stop stop-color="#FFE2AE"/>
<stop offset="1" stop-color="#CCA04A"/>
</linearGradient>
<linearGradient id="paint1_linear" x1="9.26059" y1="12.4979" x2="21.7606" y2="18.7495" gradientUnits="userSpaceOnUse">
<stop stop-color="#FFE2AE"/>
<stop offset="1" stop-color="#CCA04A"/>
</linearGradient>
</defs>
</svg>
