<svg width="25" height="25" viewBox="0 0 25 25" fill="none" xmlns="http://www.w3.org/2000/svg">
<rect x="0.5" y="0.5" width="24" height="24" rx="12" stroke="url(#paint0_linear)"/>
<path fill-rule="evenodd" clip-rule="evenodd" d="M15.2793 18.6897C16.153 19.0719 16.4806 18.271 16.4806 18.271L18.7923 6.65808C18.7741 5.87539 17.7184 6.34864 17.7184 6.34864L4.77666 11.427C4.77666 11.427 4.15779 11.6455 4.2124 12.0277C4.267 12.41 4.75846 12.592 4.75846 12.592L8.01665 13.6841C8.01665 13.6841 8.99956 16.9059 9.19979 17.5248C9.38181 18.1254 9.54563 18.1436 9.54563 18.1436C9.72765 18.2164 9.89147 18.089 9.89147 18.089L12.0029 16.1778L15.2793 18.6897ZM15.8436 8.71491C15.8436 8.71491 16.2986 8.44188 16.2804 8.71491C16.2804 8.71491 16.3532 8.75132 16.1166 9.00615C15.8982 9.22457 10.747 13.8479 10.0553 14.4668C10.0007 14.5032 9.96428 14.5578 9.96428 14.6306L9.76405 16.3416C9.72765 16.5236 9.49102 16.5418 9.43641 16.378L8.58091 13.5749C8.54451 13.4657 8.58091 13.3383 8.69013 13.2655L15.8436 8.71491Z" fill="url(#paint1_linear)"/>
<defs>
<linearGradient id="paint0_linear" x1="6.25" y1="12.4967" x2="26.2504" y2="22.4999" gradientUnits="userSpaceOnUse">
<stop stop-color="#FFE2AE"/>
<stop offset="1" stop-color="#CCA04A"/>
</linearGradient>
<linearGradient id="paint1_linear" x1="7.85482" y1="12.4983" x2="18.7734" y2="18.8257" gradientUnits="userSpaceOnUse">
<stop stop-color="#FFE2AE"/>
<stop offset="1" stop-color="#CCA04A"/>
</linearGradient>
</defs>
</svg>
