<svg width="25" height="25" viewBox="0 0 25 25" fill="none" xmlns="http://www.w3.org/2000/svg">
<rect x="0.5" y="0.5" width="24" height="24" rx="12" stroke="#BF7C17"/>
<path fill-rule="evenodd" clip-rule="evenodd" d="M20.4522 8.61162C20.5682 8.22533 20.4522 7.94141 19.9008 7.94141H18.0775C17.6138 7.94141 17.4002 8.18665 17.2843 8.45715C17.2843 8.45715 16.357 10.7172 15.0434 12.1852C14.6185 12.6102 14.4253 12.7453 14.1935 12.7453C14.0776 12.7453 13.9098 12.6102 13.9098 12.2239V8.61162C13.9098 8.14797 13.7753 7.94141 13.3889 7.94141H10.5236C10.234 7.94141 10.0597 8.15656 10.0597 8.36051C10.0597 8.80007 10.7164 8.9014 10.7841 10.1376V12.8228C10.7841 13.4114 10.6778 13.5182 10.446 13.5182C9.82788 13.5182 8.32441 11.2479 7.43253 8.6503C7.25775 8.14536 7.08245 7.94141 6.61646 7.94141H4.79311C4.27216 7.94141 4.16797 8.18665 4.16797 8.45715C4.16797 8.94008 4.78621 11.3354 7.04624 14.5034C8.55311 16.6666 10.6757 17.8396 12.6074 17.8396C13.7666 17.8396 13.9098 17.5791 13.9098 17.1304V15.4953C13.9098 14.9743 14.0196 14.8704 14.3865 14.8704C14.6571 14.8704 15.1207 15.0056 16.2025 16.0486C17.4388 17.2847 17.6425 17.8396 18.3379 17.8396H20.1613C20.6822 17.8396 20.9427 17.5791 20.7924 17.065C20.6281 16.5527 20.0378 15.8095 19.2546 14.9283C18.8296 14.426 18.1921 13.8851 17.9991 13.6147C17.7286 13.267 17.8058 13.1125 17.9991 12.8036C17.9991 12.8036 20.2204 9.67423 20.4522 8.61175V8.61162Z" fill="#BF7C17"/>
</svg>
