<svg width="25" height="25" viewBox="0 0 25 25" fill="none" xmlns="http://www.w3.org/2000/svg">
<rect x="0.5" y="0.5" width="24" height="24" rx="12" stroke="#BF7C17"/>
<path d="M18.6217 6.34628C18.2082 5.96614 16.5343 4.74903 12.8029 4.73236C12.8029 4.73236 8.40464 4.46559 6.26052 6.43298C5.06675 7.62675 4.6466 9.37072 4.60325 11.5382C4.5599 13.7023 4.50321 17.7605 8.41464 18.8609H8.41797L8.41464 20.5381C8.41464 20.5381 8.3913 21.2184 8.83813 21.3551C9.37833 21.5218 9.69844 21.005 10.2153 20.4481C10.4987 20.1413 10.8889 19.6945 11.1857 19.351C13.86 19.5745 15.9174 19.0609 16.1508 18.9842C16.691 18.8075 19.7488 18.4174 20.2456 14.3592C20.7592 10.1843 19.9955 7.54005 18.6217 6.34628ZM19.0752 14.0658C18.6551 17.4537 16.1775 17.6671 15.7206 17.8138C15.5272 17.8772 13.7199 18.3273 11.4457 18.1773C11.4457 18.1773 9.7518 20.2214 9.22494 20.7515C9.14157 20.8349 9.04487 20.8683 8.98151 20.8516C8.89148 20.8282 8.8648 20.7215 8.86814 20.5648C8.86814 20.3381 8.88148 17.7738 8.88148 17.7738C8.87814 17.7738 8.87814 17.7738 8.88148 17.7738C5.57027 16.8568 5.76367 13.4022 5.80035 11.5949C5.83703 9.78754 6.17716 8.30366 7.18752 7.30663C8.99819 5.66603 12.7362 5.90945 12.7362 5.90945C15.8907 5.92279 17.4013 6.87314 17.7514 7.18992C18.9151 8.19029 19.5087 10.5745 19.0752 14.0658Z" fill="#BF7C17"/>
<path d="M14.342 11.6578C14.2319 11.6578 14.1386 11.5711 14.1319 11.4577C14.0952 10.7408 13.7584 10.3907 13.0715 10.354C12.9548 10.3473 12.8648 10.2473 12.8714 10.1306C12.8781 10.0139 12.9781 9.92385 13.0949 9.93052C14.0019 9.98054 14.5087 10.5007 14.5554 11.4344C14.5621 11.5511 14.472 11.6512 14.3553 11.6545C14.3486 11.6578 14.3453 11.6578 14.342 11.6578Z" fill="#BF7C17"/>
<path d="M15.4187 12.0179H15.4154C15.2987 12.0146 15.2053 11.9179 15.2086 11.8012C15.2253 11.0809 15.0186 10.4974 14.5784 10.0172C14.1416 9.53704 13.538 9.27694 12.7411 9.22026C12.6244 9.21025 12.5377 9.11022 12.5477 8.99351C12.5577 8.8768 12.6577 8.7901 12.7744 8.8001C13.6747 8.86679 14.385 9.18024 14.8919 9.73378C15.402 10.2906 15.6488 10.9876 15.6321 11.8112C15.6288 11.9279 15.5321 12.0179 15.4187 12.0179Z" fill="#BF7C17"/>
<path d="M16.5274 12.4514C16.4107 12.4514 16.3173 12.3581 16.3173 12.2414C16.3073 10.9509 15.9372 9.9672 15.1835 9.23027C14.4399 8.50333 13.4963 8.1332 12.3859 8.1232C12.2691 8.1232 12.1758 8.02649 12.1758 7.90978C12.1758 7.79307 12.2725 7.69971 12.3859 7.69971C13.6096 7.70971 14.65 8.11986 15.4737 8.92682C16.3006 9.73378 16.7241 10.8475 16.7374 12.2347C16.7408 12.3547 16.6474 12.4514 16.5274 12.4514C16.5307 12.4514 16.5307 12.4514 16.5274 12.4514Z" fill="#BF7C17"/>
<path d="M13.1194 14.2685C13.1194 14.2685 13.4162 14.2952 13.5762 14.0985L13.8863 13.7083C14.0364 13.5149 14.3999 13.3916 14.7533 13.5883C14.9501 13.6983 15.3069 13.9184 15.5269 14.0818C15.7637 14.2552 16.2439 14.6553 16.2472 14.6587C16.4773 14.8521 16.5306 15.1355 16.3739 15.439C16.3739 15.439 16.3739 15.4423 16.3739 15.4456C16.2139 15.7291 15.9971 15.9958 15.727 16.2426C15.7237 16.2426 15.7237 16.2459 15.7203 16.2459C15.4969 16.4327 15.2769 16.5394 15.0634 16.5627C15.0368 16.5694 15.0068 16.5694 14.9667 16.5694C14.8734 16.5694 14.78 16.556 14.6866 16.526L14.68 16.516C14.3465 16.4227 13.793 16.1892 12.8726 15.6791C12.2724 15.3489 11.7756 15.0121 11.3521 14.6754C11.1287 14.4986 10.9019 14.3019 10.6685 14.0685C10.6618 14.0618 10.6518 14.0518 10.6452 14.0451C10.6385 14.0385 10.6285 14.0285 10.6218 14.0218C10.6151 14.0151 10.6051 14.0051 10.5985 13.9984C10.5918 13.9918 10.5818 13.9818 10.5751 13.9751C10.345 13.7417 10.145 13.5149 9.96825 13.2915C9.63146 12.8714 9.29467 12.3712 8.96454 11.771C8.45436 10.8473 8.22094 10.2938 8.12757 9.96363L8.11757 9.95696C8.08756 9.8636 8.07422 9.77023 8.07422 9.67686C8.07422 9.63685 8.07422 9.60684 8.08089 9.58016C8.10756 9.36341 8.21427 9.14667 8.39767 8.92325C8.39767 8.91992 8.40101 8.91992 8.40101 8.91658C8.64776 8.64315 8.91453 8.42974 9.19796 8.26968C9.19796 8.26968 9.2013 8.26968 9.20463 8.26968C9.50474 8.11296 9.78818 8.16631 9.98492 8.39639C9.98492 8.39639 10.3884 8.8799 10.5618 9.11666C10.7252 9.34007 10.9453 9.69353 11.0553 9.89027C11.252 10.2437 11.1287 10.6072 10.9353 10.7573L10.5451 11.0674C10.3484 11.2274 10.3751 11.5242 10.3751 11.5242C10.3751 11.5242 10.9519 13.7183 13.1194 14.2685Z" fill="#BF7C17"/>
</svg>
