<svg width="43" height="30" viewBox="0 0 43 30" fill="none" xmlns="http://www.w3.org/2000/svg">
<path d="M41.5909 22.5H40.9091V17.0455C40.9081 16.3224 40.6205 15.6293 40.1092 15.118C39.598 14.6068 38.9048 14.3191 38.1818 14.3182V2.72727C38.1809 2.00425 37.8932 1.3111 37.382 0.799846C36.8707 0.288588 36.1776 0.000947109 35.4545 0H6.81818C6.09515 0.000947109 5.40201 0.288588 4.89075 0.799846C4.3795 1.3111 4.09186 2.00425 4.09091 2.72727V14.3182C3.36788 14.3191 2.67474 14.6068 2.16348 15.118C1.65222 15.6293 1.36458 16.3224 1.36364 17.0455V22.5H0.681818C0.500989 22.5 0.327566 22.5718 0.1997 22.6997C0.0718342 22.8276 0 23.001 0 23.1818V25.9091C0 26.0899 0.0718342 26.2633 0.1997 26.3912C0.327566 26.5191 0.500989 26.5909 0.681818 26.5909H1.36364V29.3182C1.36364 29.499 1.43547 29.6724 1.56334 29.8003C1.6912 29.9282 1.86463 30 2.04545 30H4.09091C4.24849 30.0001 4.40122 29.9455 4.52307 29.8456C4.64491 29.7456 4.72832 29.6065 4.75909 29.452L5.33182 26.5909H36.9409L37.5136 29.452C37.5444 29.6065 37.6278 29.7456 37.7497 29.8456C37.8715 29.9455 38.0242 30.0001 38.1818 30H40.2273C40.4081 30 40.5815 29.9282 40.7094 29.8003C40.8373 29.6724 40.9091 29.499 40.9091 29.3182V26.5909H41.5909C41.7717 26.5909 41.9452 26.5191 42.073 26.3912C42.2009 26.2633 42.2727 26.0899 42.2727 25.9091V23.1818C42.2727 23.001 42.2009 22.8276 42.073 22.6997C41.9452 22.5718 41.7717 22.5 41.5909 22.5ZM5.45455 2.72727C5.45502 2.36576 5.59884 2.01919 5.85447 1.76356C6.1101 1.50793 6.45667 1.36411 6.81818 1.36364H35.4545C35.8161 1.36411 36.1626 1.50793 36.4183 1.76356C36.6739 2.01919 36.8177 2.36576 36.8182 2.72727V14.3182H35.4545V11.5909C35.4536 10.8679 35.166 10.1747 34.6547 9.66348C34.1434 9.15222 33.4503 8.86458 32.7273 8.86364H24.5455C23.8224 8.86458 23.1293 9.15222 22.618 9.66348C22.1068 10.1747 21.8191 10.8679 21.8182 11.5909V14.3182H20.4545V11.5909C20.4536 10.8679 20.166 10.1747 19.6547 9.66348C19.1434 9.15222 18.4503 8.86458 17.7273 8.86364H9.54545C8.82243 8.86458 8.12929 9.15222 7.61803 9.66348C7.10677 10.1747 6.81913 10.8679 6.81818 11.5909V14.3182H5.45455V2.72727ZM34.0909 11.5909V14.3182H23.1818V11.5909C23.1823 11.2294 23.3261 10.8828 23.5817 10.6272C23.8374 10.3716 24.1839 10.2277 24.5455 10.2273H32.7273C33.0888 10.2277 33.4354 10.3716 33.691 10.6272C33.9466 10.8828 34.0904 11.2294 34.0909 11.5909ZM19.0909 11.5909V14.3182H8.18182V11.5909C8.18229 11.2294 8.32611 10.8828 8.58174 10.6272C8.83737 10.3716 9.18394 10.2277 9.54545 10.2273H17.7273C18.0888 10.2277 18.4354 10.3716 18.691 10.6272C18.9466 10.8828 19.0904 11.2294 19.0909 11.5909ZM2.72727 17.0455C2.72775 16.6839 2.87157 16.3374 3.1272 16.0817C3.38282 15.8261 3.7294 15.6823 4.09091 15.6818H38.1818C38.5433 15.6823 38.8899 15.8261 39.1455 16.0817C39.4012 16.3374 39.545 16.6839 39.5455 17.0455V22.5H2.72727V17.0455ZM3.53182 28.6364H2.72727V26.5909H3.94091L3.53182 28.6364ZM39.5455 28.6364H38.7409L38.3318 26.5909H39.5455V28.6364ZM40.9091 25.2273H1.36364V23.8636H40.9091V25.2273Z" fill="#212121"/>
</svg>
