<svg width="35" height="30" viewBox="0 0 35 30" fill="none" xmlns="http://www.w3.org/2000/svg">
<path d="M34.4446 30H0L17.2223 0L34.4446 30ZM17.7526 29.204H33.0754L27.4639 19.4296L17.7526 29.204ZM1.36924 29.204H16.6999L6.98073 19.4296L1.36924 29.204ZM16.2963 27.6121C16.5543 27.8341 16.8827 27.9561 17.2223 27.9561C17.5619 27.9561 17.8903 27.8341 18.1483 27.6121L18.1958 27.5564C18.4341 27.3087 18.5675 26.9777 18.5678 26.6331C18.5678 26.2742 18.426 25.93 18.1737 25.6762C17.9214 25.4225 17.5791 25.2799 17.2223 25.2799C16.8655 25.2799 16.5232 25.4225 16.2709 25.6762C16.0186 25.93 15.8768 26.2742 15.8768 26.6331C15.8772 26.9816 16.0136 27.316 16.2567 27.5643L16.2963 27.6121ZM11.7928 23.083L15.1012 26.4102C15.1646 25.8893 15.4153 25.4098 15.806 25.062C16.1967 24.7142 16.7005 24.5222 17.2223 24.5222C17.7441 24.5222 18.2479 24.7142 18.6386 25.062C19.0293 25.4098 19.28 25.8893 19.3434 26.4102L22.6518 23.083L17.2223 17.6307L11.7928 23.083ZM20.499 19.7639L23.2928 22.5736L27.0919 18.753L25.0103 15.1234L20.499 19.7639ZM7.39229 18.7211L11.1913 22.5418L13.9852 19.732L9.43427 15.1234L7.39229 18.7211ZM17.8317 17.0815L19.9054 19.1669L24.5988 14.4388L23.0871 11.8042L17.8317 17.0815ZM9.84583 14.4388L14.5471 19.1669L16.6208 17.0815L11.3654 11.8042L9.84583 14.4388ZM11.7691 11.0878L16.8266 16.1741V2.28443L11.7691 11.0878ZM17.618 2.28443V16.1741L22.6755 11.0878L17.618 2.28443Z" fill="url(#paint0_linear)"/>
<defs>
<linearGradient id="paint0_linear" x1="8.61115" y1="14.996" x2="34.5177" y2="29.8727" gradientUnits="userSpaceOnUse">
<stop stop-color="#FFE2AE"/>
<stop offset="1" stop-color="#CCA04A"/>
</linearGradient>
</defs>
</svg>
