<svg width="26" height="25" viewBox="0 0 26 25" fill="none" xmlns="http://www.w3.org/2000/svg">
<rect x="1.16699" y="0.5" width="24" height="24" rx="12" stroke="url(#paint0_linear)"/>
<path fill-rule="evenodd" clip-rule="evenodd" d="M21.1183 8.61162C21.2342 8.22533 21.1183 7.94141 20.5668 7.94141H18.7435C18.2798 7.94141 18.0662 8.18665 17.9503 8.45715C17.9503 8.45715 17.023 10.7172 15.7094 12.1852C15.2845 12.6102 15.0913 12.7453 14.8595 12.7453C14.7436 12.7453 14.5758 12.6102 14.5758 12.2239V8.61162C14.5758 8.14797 14.4413 7.94141 14.0549 7.94141H11.1896C10.9 7.94141 10.7257 8.15656 10.7257 8.36051C10.7257 8.80007 11.3824 8.9014 11.4501 10.1376V12.8228C11.4501 13.4114 11.3438 13.5182 11.112 13.5182C10.4939 13.5182 8.99042 11.2479 8.09855 8.6503C7.92377 8.14536 7.74847 7.94141 7.28247 7.94141H5.45913C4.93818 7.94141 4.83398 8.18665 4.83398 8.45715C4.83398 8.94008 5.45223 11.3354 7.71226 14.5034C9.21912 16.6666 11.3418 17.8396 13.2735 17.8396C14.4326 17.8396 14.5758 17.5791 14.5758 17.1304V15.4953C14.5758 14.9743 14.6856 14.8704 15.0525 14.8704C15.3232 14.8704 15.7867 15.0056 16.8686 16.0486C18.1048 17.2847 18.3085 17.8396 19.004 17.8396H20.8273C21.3483 17.8396 21.6087 17.5791 21.4584 17.065C21.2941 16.5527 20.7038 15.8095 19.9206 14.9283C19.4956 14.426 18.8581 13.8851 18.6651 13.6147C18.3946 13.267 18.4718 13.1125 18.6651 12.8036C18.6651 12.8036 20.8864 9.67423 21.1183 8.61175V8.61162Z" fill="url(#paint1_linear)"/>
<defs>
<linearGradient id="paint0_linear" x1="6.91699" y1="12.4967" x2="26.9174" y2="22.4999" gradientUnits="userSpaceOnUse">
<stop stop-color="#FFE2AE"/>
<stop offset="1" stop-color="#CCA04A"/>
</linearGradient>
<linearGradient id="paint1_linear" x1="9.00065" y1="12.8892" x2="18.753" y2="21.1022" gradientUnits="userSpaceOnUse">
<stop stop-color="#FFE2AE"/>
<stop offset="1" stop-color="#CCA04A"/>
</linearGradient>
</defs>
</svg>
