<svg width="25" height="25" viewBox="0 0 25 25" fill="none" xmlns="http://www.w3.org/2000/svg">
<rect x="0.5" y="0.5" width="24" height="24" rx="12" stroke="#BF7C17"/>
<path d="M9.89625 12.5C9.89625 11.0618 11.0618 9.89563 12.5 9.89563C13.9382 9.89563 15.1044 11.0618 15.1044 12.5C15.1044 13.9382 13.9382 15.1044 12.5 15.1044C11.0618 15.1044 9.89625 13.9382 9.89625 12.5ZM8.48837 12.5C8.48837 14.7156 10.2844 16.5116 12.5 16.5116C14.7156 16.5116 16.5116 14.7156 16.5116 12.5C16.5116 10.2844 14.7156 8.48838 12.5 8.48838C10.2844 8.48838 8.48837 10.2844 8.48837 12.5ZM15.7329 8.32931C15.7329 8.51473 15.7878 8.69601 15.8907 8.85022C15.9937 9.00444 16.14 9.12466 16.3113 9.19568C16.4826 9.26671 16.6711 9.28535 16.853 9.24925C17.0348 9.21315 17.2019 9.12392 17.3331 8.99287C17.4642 8.86181 17.5536 8.6948 17.5898 8.51295C17.6261 8.33111 17.6076 8.1426 17.5367 7.97127C17.4658 7.79993 17.3457 7.65347 17.1916 7.55039C17.0375 7.44732 16.8562 7.39226 16.6708 7.39219H16.6704C16.4219 7.3923 16.1836 7.49106 16.0078 7.66677C15.832 7.84248 15.7332 8.08077 15.7329 8.32931ZM9.34375 18.8592C8.58206 18.8245 8.16806 18.6976 7.89294 18.5904C7.52819 18.4484 7.26794 18.2793 6.99431 18.0061C6.72069 17.7328 6.55131 17.4728 6.40994 17.1081C6.30269 16.8331 6.17581 16.4189 6.14119 15.6573C6.10331 14.8338 6.09575 14.5864 6.09575 12.5001C6.09575 10.4138 6.10394 10.1671 6.14119 9.34288C6.17587 8.58119 6.30369 8.16788 6.40994 7.89206C6.55194 7.52731 6.72106 7.26706 6.99431 6.99344C7.26756 6.71981 7.52756 6.55044 7.89294 6.40906C8.16794 6.30181 8.58206 6.17494 9.34375 6.14031C10.1672 6.10244 10.4146 6.09487 12.5 6.09487C14.5854 6.09487 14.833 6.10306 15.6572 6.14031C16.4189 6.175 16.8322 6.30281 17.108 6.40906C17.4727 6.55044 17.733 6.72019 18.0066 6.99344C18.2802 7.26669 18.449 7.52731 18.591 7.89206C18.6982 8.16706 18.8251 8.58119 18.8597 9.34288C18.8976 10.1671 18.9052 10.4138 18.9052 12.5001C18.9052 14.5864 18.8976 14.8331 18.8597 15.6573C18.8251 16.4189 18.6976 16.8329 18.591 17.1081C18.449 17.4728 18.2799 17.7331 18.0066 18.0061C17.7334 18.2791 17.4727 18.4484 17.108 18.5904C16.833 18.6977 16.4189 18.8246 15.6572 18.8592C14.8337 18.8971 14.5863 18.9046 12.5 18.9046C10.4137 18.9046 10.167 18.8971 9.34375 18.8592ZM9.27906 4.73481C8.44737 4.77269 7.87906 4.90456 7.38275 5.09769C6.86875 5.29712 6.43362 5.56469 5.99881 5.99881C5.564 6.43294 5.29712 6.86875 5.09769 7.38275C4.90456 7.87937 4.77269 8.44738 4.73481 9.27906C4.69631 10.1121 4.6875 10.3784 4.6875 12.5C4.6875 14.6216 4.69631 14.8879 4.73481 15.7209C4.77269 16.5527 4.90456 17.1206 5.09769 17.6173C5.29712 18.1309 5.56406 18.5673 5.99881 19.0012C6.43356 19.4351 6.86875 19.7023 7.38275 19.9023C7.88 20.0954 8.44737 20.2273 9.27906 20.2652C10.1125 20.3031 10.3784 20.3125 12.5 20.3125C14.6216 20.3125 14.8879 20.3037 15.7209 20.2652C16.5527 20.2273 17.1206 20.0954 17.6172 19.9023C18.1309 19.7023 18.5664 19.4353 19.0012 19.0012C19.436 18.5671 19.7023 18.1309 19.9023 17.6173C20.0954 17.1206 20.2279 16.5526 20.2652 15.7209C20.3031 14.8873 20.3119 14.6216 20.3119 12.5C20.3119 10.3784 20.3031 10.1121 20.2652 9.27906C20.2273 8.44731 20.0954 7.87906 19.9023 7.38275C19.7023 6.86906 19.4353 6.43362 19.0012 5.99881C18.5671 5.564 18.1309 5.29712 17.6179 5.09769C17.1206 4.90456 16.5526 4.77206 15.7216 4.73481C14.8886 4.69694 14.6222 4.6875 12.5006 4.6875C10.379 4.6875 10.1125 4.69631 9.27906 4.73481Z" fill="#BF7C17"/>
</svg>
