<svg width="28" height="20" viewBox="0 0 28 20" fill="none" xmlns="http://www.w3.org/2000/svg">
<path d="M20.9 1.2C20.3857 0.471429 19.5286 0 18.5714 0H2.85714C1.28571 0 0 1.28571 0 2.85714V17.1429C0 17.9006 0.301019 18.6273 0.836838 19.1632C1.37266 19.699 2.09938 20 2.85714 20H18.5714C19.5286 20 20.3857 19.5143 20.9 18.7857L27.1429 10L20.9 1.2ZM7.78571 4.32857C8.9 4.32857 9.81429 5.24286 9.81429 6.35714C9.81429 7.47143 8.9 8.38571 7.78571 8.38571C6.67143 8.38571 5.75714 7.47143 5.75714 6.35714C5.75714 5.24286 6.67143 4.32857 7.78571 4.32857ZM15.0714 15.6714C13.9571 15.6714 13.0429 14.7571 13.0429 13.6429C13.0429 12.5286 13.9571 11.6143 15.0714 11.6143C16.1857 11.6143 17.1 12.5286 17.1 13.6429C17.1 14.7571 16.1857 15.6714 15.0714 15.6714ZM7.42857 15.7143L5.71429 14L15.4286 4.28571L17.1429 6L7.42857 15.7143Z" fill="url(#paint0_linear)"/>
<defs>
<linearGradient id="paint0_linear" x1="13.6446" y1="0" x2="13.6403" y2="20" gradientUnits="userSpaceOnUse">
<stop stop-color="#FFE2AE"/>
<stop offset="1" stop-color="#BF7C17"/>
</linearGradient>
</defs>
</svg>
