<svg width="25" height="25" viewBox="0 0 25 25" fill="none" xmlns="http://www.w3.org/2000/svg">
<rect x="0.5" y="0.5" width="24" height="24" rx="12" stroke="url(#paint0_linear)"/>
<path d="M18.6217 6.3461C18.2082 5.96596 16.5343 4.74885 12.8029 4.73217C12.8029 4.73217 8.40464 4.46541 6.26052 6.43279C5.06675 7.62656 4.6466 9.37054 4.60325 11.538C4.5599 13.7021 4.50321 17.7603 8.41464 18.8607H8.41797L8.41464 20.538C8.41464 20.538 8.3913 21.2182 8.83813 21.3549C9.37833 21.5216 9.69844 21.0048 10.2153 20.4479C10.4987 20.1411 10.8889 19.6943 11.1857 19.3509C13.86 19.5743 15.9174 19.0607 16.1508 18.9841C16.691 18.8073 19.7488 18.4172 20.2456 14.359C20.7592 10.1842 19.9955 7.53987 18.6217 6.3461ZM19.0752 14.0656C18.6551 17.4535 16.1775 17.6669 15.7206 17.8136C15.5272 17.877 13.7199 18.3271 11.4457 18.1771C11.4457 18.1771 9.7518 20.2212 9.22494 20.7514C9.14157 20.8347 9.04487 20.8681 8.98151 20.8514C8.89148 20.8281 8.8648 20.7214 8.86814 20.5646C8.86814 20.3379 8.88148 17.7736 8.88148 17.7736C8.87814 17.7736 8.87814 17.7736 8.88148 17.7736C5.57027 16.8566 5.76367 13.402 5.80035 11.5947C5.83703 9.78735 6.17716 8.30348 7.18752 7.30645C8.99819 5.66585 12.7362 5.90927 12.7362 5.90927C15.8907 5.92261 17.4013 6.87296 17.7514 7.18974C18.9151 8.1901 19.5087 10.5743 19.0752 14.0656Z" fill="url(#paint1_linear)"/>
<path d="M14.34 11.6579C14.23 11.6579 14.1366 11.5712 14.1299 11.4578C14.0933 10.7409 13.7565 10.3908 13.0696 10.3541C12.9529 10.3474 12.8628 10.2474 12.8695 10.1307C12.8762 10.0139 12.9762 9.92392 13.0929 9.93058C13.9999 9.9806 14.5068 10.5008 14.5534 11.4345C14.5601 11.5512 14.4701 11.6512 14.3534 11.6545C14.3467 11.6579 14.3434 11.6579 14.34 11.6579Z" fill="url(#paint2_linear)"/>
<path d="M15.4207 12.0181H15.4173C15.3006 12.0147 15.2073 11.918 15.2106 11.8013C15.2273 11.0811 15.0205 10.4975 14.5804 10.0173C14.1435 9.53716 13.54 9.27707 12.743 9.22038C12.6263 9.21037 12.5396 9.11034 12.5496 8.99363C12.5596 8.87692 12.6597 8.79022 12.7764 8.80022C13.6767 8.86692 14.387 9.18036 14.8938 9.7339C15.404 10.2908 15.6507 10.9877 15.6341 11.8113C15.6307 11.928 15.534 12.0181 15.4207 12.0181Z" fill="url(#paint3_linear)"/>
<path d="M16.5274 12.4513C16.4107 12.4513 16.3173 12.358 16.3173 12.2412C16.3073 10.9508 15.9372 9.96708 15.1835 9.23015C14.4399 8.50321 13.4963 8.13308 12.3859 8.12307C12.2691 8.12307 12.1758 8.02637 12.1758 7.90966C12.1758 7.79295 12.2725 7.69958 12.3859 7.69958C13.6096 7.70959 14.65 8.11974 15.4737 8.9267C16.3006 9.73366 16.7241 10.8474 16.7374 12.2346C16.7408 12.3546 16.6474 12.4513 16.5274 12.4513C16.5307 12.4513 16.5307 12.4513 16.5274 12.4513Z" fill="url(#paint4_linear)"/>
<path d="M13.1194 14.2685C13.1194 14.2685 13.4162 14.2952 13.5762 14.0985L13.8863 13.7083C14.0364 13.5149 14.3999 13.3916 14.7533 13.5883C14.9501 13.6983 15.3069 13.9184 15.5269 14.0818C15.7637 14.2552 16.2439 14.6553 16.2472 14.6587C16.4773 14.8521 16.5306 15.1355 16.3739 15.439C16.3739 15.439 16.3739 15.4423 16.3739 15.4456C16.2139 15.7291 15.9971 15.9958 15.727 16.2426C15.7237 16.2426 15.7237 16.2459 15.7203 16.2459C15.4969 16.4327 15.2769 16.5394 15.0634 16.5627C15.0368 16.5694 15.0068 16.5694 14.9667 16.5694C14.8734 16.5694 14.78 16.556 14.6866 16.526L14.68 16.516C14.3465 16.4227 13.793 16.1892 12.8726 15.6791C12.2724 15.3489 11.7756 15.0121 11.3521 14.6754C11.1287 14.4986 10.9019 14.3019 10.6685 14.0685C10.6618 14.0618 10.6518 14.0518 10.6452 14.0451C10.6385 14.0385 10.6285 14.0285 10.6218 14.0218C10.6151 14.0151 10.6051 14.0051 10.5985 13.9984C10.5918 13.9918 10.5818 13.9818 10.5751 13.9751C10.345 13.7417 10.145 13.5149 9.96825 13.2915C9.63146 12.8714 9.29467 12.3712 8.96454 11.771C8.45436 10.8473 8.22094 10.2938 8.12757 9.96363L8.11757 9.95696C8.08756 9.8636 8.07422 9.77023 8.07422 9.67686C8.07422 9.63685 8.07422 9.60684 8.08089 9.58016C8.10756 9.36341 8.21427 9.14667 8.39767 8.92325C8.39767 8.91992 8.40101 8.91992 8.40101 8.91658C8.64776 8.64315 8.91453 8.42974 9.19796 8.26968C9.19796 8.26968 9.2013 8.26968 9.20463 8.26968C9.50474 8.11296 9.78818 8.16631 9.98492 8.39639C9.98492 8.39639 10.3884 8.8799 10.5618 9.11666C10.7252 9.34007 10.9453 9.69353 11.0553 9.89027C11.252 10.2437 11.1287 10.6072 10.9353 10.7573L10.5451 11.0674C10.3484 11.2274 10.3751 11.5242 10.3751 11.5242C10.3751 11.5242 10.9519 13.7183 13.1194 14.2685Z" fill="url(#paint5_linear)"/>
<defs>
<linearGradient id="paint0_linear" x1="6.25" y1="12.4967" x2="26.2504" y2="22.4999" gradientUnits="userSpaceOnUse">
<stop stop-color="#FFE2AE"/>
<stop offset="1" stop-color="#CCA04A"/>
</linearGradient>
<linearGradient id="paint1_linear" x1="8.54691" y1="13.0512" x2="21.4552" y2="19.1764" gradientUnits="userSpaceOnUse">
<stop stop-color="#FFE2AE"/>
<stop offset="1" stop-color="#CCA04A"/>
</linearGradient>
<linearGradient id="paint2_linear" x1="13.2903" y1="10.7938" x2="14.6514" y2="11.4577" gradientUnits="userSpaceOnUse">
<stop stop-color="#FFE2AE"/>
<stop offset="1" stop-color="#CCA04A"/>
</linearGradient>
<linearGradient id="paint3_linear" x1="13.3203" y1="10.4083" x2="15.8297" y2="11.6117" gradientUnits="userSpaceOnUse">
<stop stop-color="#FFE2AE"/>
<stop offset="1" stop-color="#CCA04A"/>
</linearGradient>
<linearGradient id="paint4_linear" x1="13.3162" y1="10.0748" x2="17.0238" y2="11.855" gradientUnits="userSpaceOnUse">
<stop stop-color="#FFE2AE"/>
<stop offset="1" stop-color="#CCA04A"/>
</linearGradient>
<linearGradient id="paint5_linear" x1="10.1715" y1="12.3737" x2="16.883" y2="15.7304" gradientUnits="userSpaceOnUse">
<stop stop-color="#FFE2AE"/>
<stop offset="1" stop-color="#CCA04A"/>
</linearGradient>
</defs>
</svg>
