<svg width="31" height="30" viewBox="0 0 31 30" fill="none" xmlns="http://www.w3.org/2000/svg">
<path d="M29.8242 28.3887L20.7129 19.2188C22.5293 17.0508 23.4375 14.5508 23.4375 11.7188C23.4375 9.58984 22.915 7.62695 21.8701 5.83008C20.8252 4.0332 19.3994 2.6123 17.5928 1.56738C15.7861 0.522461 13.8232 0 11.7041 0C9.58496 0 7.62695 0.522461 5.83008 1.56738C4.0332 2.6123 2.6123 4.0332 1.56738 5.83008C0.522461 7.62695 0 9.58984 0 11.7188C0 13.8477 0.522461 15.8105 1.56738 17.6074C2.6123 19.4043 4.0332 20.8252 5.83008 21.8701C7.62695 22.915 9.58984 23.4375 11.7188 23.4375C14.6289 23.4375 17.1875 22.4805 19.3945 20.5664L28.4766 29.707C28.6719 29.9023 28.8965 30 29.1504 30C29.4043 30 29.624 29.9072 29.8096 29.7217C29.9951 29.5361 30.0879 29.3115 30.0879 29.0479C30.0879 28.7842 30 28.5645 29.8242 28.3887ZM11.7188 21.5918C9.92188 21.5918 8.2666 21.1475 6.75293 20.2588C5.23926 19.3701 4.04297 18.1689 3.16406 16.6553C2.28516 15.1416 1.8457 13.4961 1.8457 11.7188C1.8457 9.94141 2.28516 8.2959 3.16406 6.78223C4.04297 5.26855 5.23926 4.06738 6.75293 3.17871C8.2666 2.29004 9.91699 1.8457 11.7041 1.8457C13.4912 1.8457 15.1416 2.29004 16.6553 3.17871C18.1689 4.06738 19.3652 5.26855 20.2441 6.78223C21.123 8.2959 21.5625 9.94141 21.5625 11.7188C21.5625 12.4805 21.4746 13.2324 21.2988 13.9746C21.123 14.7168 20.874 15.4102 20.5518 16.0547C20.2295 16.6992 19.8438 17.3096 19.3945 17.8857C18.9453 18.4619 18.4375 18.9746 17.8711 19.4238C17.3047 19.873 16.6992 20.2588 16.0547 20.5811C15.4102 20.9033 14.7168 21.1523 13.9746 21.3281C13.2324 21.5039 12.4805 21.5918 11.7188 21.5918Z" fill="black"/>
</svg>
