<svg width="25" height="25" viewBox="0 0 25 25" fill="none" xmlns="http://www.w3.org/2000/svg">
<rect x="0.5" y="0.5" width="24" height="24" rx="12" stroke="#BF7C17"/>
<path fill-rule="evenodd" clip-rule="evenodd" d="M15.2773 18.6899C16.1511 19.0721 16.4787 18.2712 16.4787 18.2712L18.7904 6.65826C18.7722 5.87557 17.7164 6.34882 17.7164 6.34882L4.77471 11.4272C4.77471 11.4272 4.15584 11.6456 4.21044 12.0279C4.26505 12.4101 4.75651 12.5922 4.75651 12.5922L8.01469 13.6843C8.01469 13.6843 8.99761 16.9061 9.19783 17.5249C9.37985 18.1256 9.54367 18.1438 9.54367 18.1438C9.72569 18.2166 9.88951 18.0892 9.88951 18.0892L12.001 16.178L15.2773 18.6899ZM15.8427 8.7151C15.8427 8.7151 16.2978 8.44207 16.2796 8.7151C16.2796 8.7151 16.3524 8.7515 16.1157 9.00633C15.8973 9.22476 10.7461 13.8481 10.0544 14.467C9.99983 14.5034 9.96342 14.558 9.96342 14.6308L9.7632 16.3418C9.72679 16.5238 9.49017 16.542 9.43556 16.3782L8.58006 13.5751C8.54365 13.4659 8.58006 13.3384 8.68927 13.2656L15.8427 8.7151Z" fill="#BF7C17"/>
</svg>
