<svg width="25" height="25" viewBox="0 0 25 25" fill="none" xmlns="http://www.w3.org/2000/svg">
<rect x="0.5" y="0.5" width="24" height="24" rx="12" stroke="#BF7C17"/>
<path d="M18.0998 6.88082C16.7597 5.50132 14.9072 4.75244 13.0153 4.75244C8.99503 4.75244 5.76305 8.02384 5.80246 12.0047C5.80246 13.266 6.15719 14.4878 6.74841 15.5914L5.72363 19.3358L9.54683 18.3504C10.611 18.9416 11.7935 19.2175 12.9759 19.2175C16.9567 19.2175 20.1887 15.9461 20.1887 11.9653C20.1887 10.034 19.4398 8.22091 18.0998 6.88082ZM13.0153 17.9957C11.9511 17.9957 10.8869 17.7198 9.98039 17.168L9.7439 17.0497L7.45787 17.641L8.04908 15.3943L7.89143 15.1578C6.15719 12.3594 6.98489 8.65447 9.82273 6.92023C12.6606 5.186 16.3261 6.0137 18.0603 8.85154C19.7946 11.6894 18.9669 15.3549 16.129 17.0892C15.2225 17.6804 14.1189 17.9957 13.0153 17.9957ZM16.4838 13.6207L16.0502 13.4236C16.0502 13.4236 15.4196 13.1477 15.0254 12.9506C14.986 12.9506 14.9466 12.9112 14.9072 12.9112C14.7889 12.9112 14.7101 12.9506 14.6313 12.9901C14.6313 12.9901 14.5919 13.0295 14.0401 13.6601C14.0007 13.7389 13.9218 13.7783 13.843 13.7783H13.8036C13.7642 13.7783 13.6853 13.7389 13.6459 13.6995L13.4489 13.6207C13.0153 13.4236 12.6212 13.1871 12.3058 12.8718C12.227 12.793 12.1088 12.7142 12.0299 12.6353C11.754 12.3594 11.4781 12.0441 11.2811 11.6894L11.2417 11.6105C11.2022 11.5711 11.2022 11.5317 11.1628 11.4529C11.1628 11.3741 11.1628 11.2952 11.2022 11.2558C11.2022 11.2558 11.3599 11.0587 11.4781 10.9405C11.557 10.8617 11.5964 10.7434 11.6752 10.6646C11.754 10.5464 11.7935 10.3887 11.754 10.2705C11.7146 10.0734 11.2417 9.0092 11.1234 8.77271C11.0446 8.65447 10.9657 8.61505 10.8475 8.57564H10.7293C10.6504 8.57564 10.5322 8.57564 10.4139 8.57564C10.3351 8.57564 10.2563 8.61505 10.1775 8.61505L10.138 8.65447C10.0592 8.69388 9.98039 8.77271 9.90156 8.81213C9.82273 8.89095 9.78332 8.96978 9.70449 9.04861C9.42859 9.40334 9.27093 9.8369 9.27093 10.2705C9.27093 10.5858 9.34976 10.9011 9.468 11.177L9.50742 11.2952C9.86215 12.0441 10.3351 12.7142 10.9658 13.3054L11.1234 13.463C11.2417 13.5813 11.3599 13.6601 11.4387 13.7783C12.2664 14.4878 13.2124 15.0002 14.2766 15.2761C14.3948 15.3155 14.5525 15.3155 14.6707 15.3549C14.7889 15.3549 14.9466 15.3549 15.0648 15.3549C15.2619 15.3549 15.4984 15.2761 15.6561 15.1973C15.7743 15.1184 15.8531 15.1184 15.932 15.0396L16.0108 14.9608C16.0896 14.8819 16.1685 14.8425 16.2473 14.7637C16.3261 14.6849 16.4049 14.606 16.4444 14.5272C16.5232 14.3696 16.5626 14.1725 16.602 13.9754C16.602 13.8966 16.602 13.7783 16.602 13.6995C16.602 13.6995 16.5626 13.6601 16.4838 13.6207Z" fill="#BF7C17"/>
</svg>
