<svg width="192" height="50" viewBox="0 0 192 50" fill="none" xmlns="http://www.w3.org/2000/svg">
<g clip-path="url(#clip0)">
<path d="M72.8546 35.4606C73.5405 38.5516 75.5851 40.3691 79.4501 40.3691C83.6713 40.3691 85.2806 38.2465 85.2806 35.726C85.2806 33.2054 84.133 31.4808 79.0544 30.2205C73.9758 28.9602 72.0631 27.4081 72.0631 24.065C72.0631 21.0138 74.266 18.1616 79.2127 18.1616C84.1593 18.1616 86.4414 21.2792 86.7316 24.0916H84.8189C84.2912 21.6108 82.6819 19.8199 79.0544 19.8199C75.717 19.8199 73.9098 21.372 73.9098 23.9589C73.9098 26.5458 75.4268 27.5142 79.6744 28.5755C86.1776 30.194 87.1273 32.8074 87.1273 35.5933C87.1273 39.016 84.6606 41.961 79.3182 41.961C73.5405 41.961 71.4035 38.5782 71.0078 35.4606H72.8546Z" fill="white"/>
<path d="M93.1684 17.2461V27.859C93.6677 26.8538 94.448 26.0171 95.4134 25.4515C96.3788 24.8859 97.4874 24.6161 98.6032 24.6751C100.951 24.6751 104.183 25.8691 104.183 31.0959V41.7088H102.534V31.4939C102.534 28.2172 101.044 26.3599 98.313 26.3599C95.0416 26.3599 93.1684 28.3764 93.1684 32.4623V41.7486H91.5195V17.2461H93.1684Z" fill="white"/>
<path d="M120.699 38.5513C120.686 39.6043 120.765 40.6564 120.936 41.6954H119.353C119.151 40.8616 119.049 40.0065 119.05 39.1483C118.496 40.3688 117.045 42.0934 113.641 42.0934C109.816 42.0934 108.167 39.6126 108.167 37.1451C108.167 33.4969 110.977 31.8387 115.923 31.8387H119.05V30.1273C119.05 28.4691 118.562 26.2536 114.802 26.2536C111.465 26.2536 110.977 28.0048 110.607 29.3579H108.958C109.156 27.5404 110.278 24.728 114.829 24.728C118.588 24.728 120.699 26.3067 120.699 29.9549V38.5513ZM119.089 33.2449H115.857C112.19 33.2449 109.921 34.2 109.921 37.0523C109.909 37.5425 110.001 38.0297 110.191 38.4814C110.382 38.9331 110.665 39.3388 111.023 39.6715C111.382 40.0042 111.806 40.2562 112.269 40.4108C112.732 40.5653 113.222 40.6188 113.707 40.5678C118.43 40.5678 119.089 37.4237 119.089 33.8419V33.2449Z" fill="white"/>
<path d="M126.146 41.6956V17.2461H127.795V41.6956H126.146Z" fill="white"/>
<path d="M133.56 33.6031C133.56 37.888 135.736 40.5412 138.836 40.5412C139.858 40.62 140.878 40.3571 141.737 39.7934C142.595 39.2297 143.245 38.3967 143.585 37.4237H145.273C144.888 38.8351 144.031 40.07 142.847 40.9205C141.662 41.771 140.223 42.1852 138.77 42.0934C133.757 42.0934 131.818 37.7554 131.818 33.5367C131.818 28.8007 134.153 24.728 138.968 24.728C144.046 24.728 145.669 29.1324 145.669 32.2499C145.669 32.7142 145.669 33.1785 145.669 33.5765L133.56 33.6031ZM144.02 32.1438C144.02 28.8671 142.2 26.2802 138.968 26.2802C135.736 26.2802 134.021 28.6681 133.691 32.1438H144.02Z" fill="white"/>
<path d="M148.967 18.8911H157.211C161.432 18.8911 164.334 21.2392 164.334 25.3517C164.334 29.4642 161.459 31.9848 156.974 31.9848H150.774V42.0936H148.967V18.8911ZM150.774 30.3265H157.145C160.865 30.3265 162.422 28.3366 162.422 25.418C162.422 22.3005 160.377 20.5494 157.277 20.5494H150.774V30.3265ZM167.922 30.0214C167.922 27.2355 167.922 26.0416 167.922 25.5109H169.545C169.545 26.0416 169.611 27.1028 169.611 29.2254C170.044 28.0398 170.825 27.0137 171.849 26.2821C172.873 25.5505 174.093 25.1476 175.349 25.1262V26.9039C171.919 27.1426 169.611 29.5571 169.611 33.4706V42.0936H167.962L167.922 30.0214ZM191.666 33.7757C191.666 38.379 189.134 42.4915 184.213 42.4915C179.768 42.4915 176.998 38.8168 176.998 33.8022C176.998 29.0662 179.636 25.1262 184.385 25.1262C188.764 25.1262 191.666 28.5621 191.666 33.7757ZM178.739 33.7757C178.739 37.7555 180.85 40.9129 184.345 40.9129C187.841 40.9129 189.952 37.9811 189.952 33.8022C189.952 29.8887 187.973 26.6783 184.306 26.6783C180.639 26.6783 178.739 29.8224 178.739 33.8022V33.7757Z" fill="url(#paint0_linear)"/>
<path d="M57.4077 50H0L28.7038 0L57.4077 50ZM29.5876 48.6734H55.1256L45.7731 32.3826L29.5876 48.6734ZM2.28206 48.6734H27.8332L11.6345 32.3826L2.28206 48.6734ZM27.1605 46.0202C27.5906 46.3901 28.1379 46.5934 28.7038 46.5934C29.2698 46.5934 29.8171 46.3901 30.2472 46.0202L30.3263 45.9273C30.7235 45.5146 30.9458 44.9628 30.9463 44.3884C30.9463 43.7903 30.7101 43.2167 30.2895 42.7937C29.869 42.3708 29.2986 42.1332 28.7038 42.1332C28.1091 42.1332 27.5387 42.3708 27.1182 42.7937C26.6976 43.2167 26.4613 43.7903 26.4613 44.3884C26.4619 44.9693 26.6893 45.5267 27.0945 45.9406L27.1605 46.0202ZM19.6547 38.4717L25.1686 44.017C25.2743 43.1489 25.6921 42.3496 26.3433 41.7699C26.9946 41.1903 27.8342 40.8703 28.7038 40.8703C29.5735 40.8703 30.4131 41.1903 31.0643 41.7699C31.7155 42.3496 32.1334 43.1489 32.239 44.017L37.7529 38.4717L28.7038 29.3845L19.6547 38.4717ZM34.1649 32.9398L38.8214 37.6227L45.1531 31.255L41.6839 25.2056L34.1649 32.9398ZM12.3205 31.2019L18.6522 37.5696L23.3087 32.8867L15.7238 25.2056L12.3205 31.2019ZM29.7195 28.4691L33.1756 31.9448L40.9979 24.0647L38.4784 19.6737L29.7195 28.4691ZM16.4097 24.0647L24.2452 31.9448L27.7013 28.4691L18.9424 19.6737L16.4097 24.0647ZM19.6152 18.4797L28.0443 26.9568V3.80738L19.6152 18.4797ZM29.3634 3.80738V26.9568L37.7925 18.4797L29.3634 3.80738Z" fill="url(#paint1_linear)"/>
</g>
<defs>
<linearGradient id="paint0_linear" x1="159.642" y1="30.6882" x2="183.121" y2="51.9348" gradientUnits="userSpaceOnUse">
<stop stop-color="#E7DC79"/>
<stop offset="1" stop-color="#B66D1E"/>
</linearGradient>
<linearGradient id="paint1_linear" x1="14.3519" y1="24.9934" x2="57.5295" y2="49.7879" gradientUnits="userSpaceOnUse">
<stop stop-color="#E7DC79"/>
<stop offset="1" stop-color="#B66D1E"/>
</linearGradient>
<clipPath id="clip0">
<rect width="191.667" height="50" fill="white"/>
</clipPath>
</defs>
</svg>
