<svg width="384" height="100" viewBox="0 0 384 100" fill="none" xmlns="http://www.w3.org/2000/svg">
<path d="M145.877 70.9208C147.249 77.1028 151.338 80.7377 159.068 80.7377C167.51 80.7377 170.729 76.4926 170.729 71.4514C170.729 66.4103 168.434 62.9611 158.277 60.4406C148.12 57.92 144.294 54.8157 144.294 48.1296C144.294 42.0272 148.7 36.3228 158.593 36.3228C168.487 36.3228 173.051 42.5578 173.631 48.1827H169.806C168.75 43.2211 165.532 39.6393 158.277 39.6393C151.602 39.6393 147.988 42.7436 147.988 47.9173C147.988 53.0911 151.022 55.028 159.517 57.1506C172.523 60.3875 174.423 65.6143 174.423 71.1861C174.423 78.0314 169.489 83.9216 158.804 83.9216C147.249 83.9216 142.975 77.1559 142.184 70.9208H145.877Z" fill="white"/>
<path d="M186.506 34.4922V55.718C187.504 53.7076 189.065 52.0342 190.996 50.903C192.927 49.7718 195.144 49.2322 197.375 49.3502C202.071 49.3502 208.535 51.7381 208.535 62.1919V83.4177H205.237V62.9878C205.237 56.4344 202.256 52.7198 196.795 52.7198C190.252 52.7198 186.506 56.7527 186.506 64.9247V83.4972H183.208V34.4922H186.506Z" fill="white"/>
<path d="M241.565 77.1031C241.54 79.2091 241.699 81.3133 242.04 83.3913H238.874C238.47 81.7237 238.266 80.0134 238.267 78.2971C237.159 80.738 234.257 84.1872 227.451 84.1872C219.8 84.1872 216.502 79.2257 216.502 74.2907C216.502 66.9943 222.121 63.6778 232.015 63.6778H238.267V60.2552C238.267 56.9386 237.291 52.5078 229.772 52.5078C223.098 52.5078 222.121 56.01 221.383 58.7163H218.085C218.481 55.0814 220.723 49.4565 229.825 49.4565C237.344 49.4565 241.565 52.6139 241.565 59.9102V77.1031ZM238.346 66.4902H231.883C224.549 66.4902 220.011 68.4006 220.011 74.105C219.987 75.0855 220.171 76.06 220.551 76.9633C220.931 77.8666 221.498 78.678 222.215 79.3434C222.931 80.0088 223.781 80.5129 224.706 80.822C225.632 81.1311 226.612 81.2382 227.582 81.136C237.027 81.136 238.346 74.8479 238.346 67.6842V66.4902Z" fill="white"/>
<path d="M252.461 83.3911V34.4922H255.759V83.3911H252.461Z" fill="white"/>
<path d="M267.288 67.2066C267.288 75.7765 271.641 81.083 277.841 81.083C279.886 81.2404 281.925 80.7146 283.642 79.5872C285.36 78.4598 286.659 76.7939 287.339 74.8479H290.715C289.945 77.6708 288.231 80.1406 285.862 81.8416C283.493 83.5426 280.614 84.3709 277.709 84.1872C267.684 84.1872 263.806 75.5112 263.806 67.074C263.806 57.6019 268.475 49.4565 278.105 49.4565C288.262 49.4565 291.507 58.2652 291.507 64.5003C291.507 65.429 291.507 66.3576 291.507 67.1535L267.288 67.2066ZM288.209 64.2881C288.209 57.7346 284.568 52.5608 278.105 52.5608C271.641 52.5608 268.211 57.3366 267.552 64.2881H288.209Z" fill="white"/>
<path d="M298.103 37.7812H314.591C323.034 37.7812 328.838 42.4775 328.838 50.7025C328.838 58.9274 323.086 63.9686 314.117 63.9686H301.717V84.1861H298.103V37.7812ZM301.717 60.652H314.459C321.899 60.652 325.012 56.6722 325.012 50.8351C325.012 44.6 320.923 41.0978 314.723 41.0978H301.717V60.652ZM336.014 60.0418C336.014 54.47 336.014 52.0821 336.014 51.0208H339.259C339.259 52.0821 339.391 54.2047 339.391 58.4499C340.258 56.0785 341.818 54.0265 343.866 52.5633C345.915 51.1001 348.355 50.2942 350.867 50.2514V53.8067C344.008 54.2843 339.391 59.1132 339.391 66.9402V84.1861H336.093L336.014 60.0418ZM383.502 67.5504C383.502 76.7571 378.436 84.9821 368.596 84.9821C359.705 84.9821 354.165 77.6327 354.165 67.6035C354.165 58.1315 359.441 50.2514 368.939 50.2514C377.698 50.2514 383.502 57.1232 383.502 67.5504ZM357.647 67.5504C357.647 75.5101 361.868 81.8248 368.86 81.8248C375.851 81.8248 380.072 75.9611 380.072 67.6035C380.072 59.7765 376.115 53.3557 368.78 53.3557C361.446 53.3557 357.647 59.6438 357.647 67.6035V67.5504Z" fill="url(#paint0_linear)"/>
<path d="M114.815 100H0L57.4077 0L114.815 100ZM59.1753 97.3468H110.251L91.5462 64.7652L59.1753 97.3468ZM4.56412 97.3468H55.6664L23.2691 64.7652L4.56412 97.3468ZM54.3209 92.0403C55.1811 92.7802 56.2758 93.1868 57.4077 93.1868C58.5395 93.1868 59.6342 92.7802 60.4944 92.0403L60.6527 91.8546C61.4471 91.0291 61.8917 89.9256 61.8926 88.7769C61.8926 87.5806 61.4201 86.4334 60.579 85.5875C59.7379 84.7416 58.5971 84.2664 57.4077 84.2664C56.2182 84.2664 55.0774 84.7416 54.2363 85.5875C53.3952 86.4334 52.9227 87.5806 52.9227 88.7769C52.9238 89.9386 53.3786 91.0533 54.189 91.8811L54.3209 92.0403ZM39.3095 76.9435L50.3372 88.034C50.5485 86.2977 51.3842 84.6992 52.6867 83.5399C53.9891 82.3806 55.6683 81.7406 57.4077 81.7406C59.147 81.7406 60.8262 82.3806 62.1286 83.5399C63.4311 84.6992 64.2668 86.2977 64.4781 88.034L75.5058 76.9435L57.4077 58.7689L39.3095 76.9435ZM68.3299 65.8795L77.6428 75.2454L90.3063 62.5099L83.3677 50.4113L68.3299 65.8795ZM24.641 62.4038L37.3044 75.1393L46.6173 65.7734L31.4476 50.4113L24.641 62.4038ZM59.4391 56.9382L66.3512 63.8896L81.9959 48.1295L76.9569 39.3473L59.4391 56.9382ZM32.8195 48.1295L48.4905 63.8896L55.4026 56.9382L37.8848 39.3473L32.8195 48.1295ZM39.2303 36.9594L56.0886 53.9135V7.61475L39.2303 36.9594ZM58.7268 7.61475V53.9135L75.585 36.9594L58.7268 7.61475Z" fill="url(#paint1_linear)"/>
<defs>
<linearGradient id="paint0_linear" x1="319.452" y1="61.3754" x2="366.411" y2="103.869" gradientUnits="userSpaceOnUse">
<stop stop-color="#E7DC79"/>
<stop offset="1" stop-color="#B66D1E"/>
</linearGradient>
<linearGradient id="paint1_linear" x1="28.7038" y1="49.9867" x2="115.059" y2="99.5758" gradientUnits="userSpaceOnUse">
<stop stop-color="#E7DC79"/>
<stop offset="1" stop-color="#B66D1E"/>
</linearGradient>
</defs>
</svg>
